REM DIRINDEX 1\3,1\4,1\5,1\6,1\2\7,1\2\8,1\2\9,1\10
REM DIRNAME folder01,folder02,folder03,folder04,folder05,folder06,folder07,folder08,folder09,folder10
TITLE ""
FILE "1-14 Level 1-122-132.mp3" MP3
  TRACK 01 AUDIO
    TITLE "0:"
    INDEX 01 00:00:00
  TRACK 02 AUDIO
    TITLE "7:cjc056_0390"
    INDEX 01 00:00:05
  TRACK 03 AUDIO
    TITLE "0:"
    INDEX 01 00:00:66
  TRACK 04 AUDIO
    TITLE "8:cjc056_0391"
    INDEX 01 00:01:15
  TRACK 05 AUDIO
    TITLE "0:"
    INDEX 01 00:02:38
  TRACK 06 AUDIO
    TITLE "9:cjc056_0392"
    INDEX 01 00:02:49
  TRACK 07 AUDIO
    TITLE "0:"
    INDEX 01 00:04:07
  TRACK 08 AUDIO
    TITLE "7:cjc056_0393"
    INDEX 01 00:04:60
  TRACK 09 AUDIO
    TITLE "0:"
    INDEX 01 00:05:61
  TRACK 10 AUDIO
    TITLE "8:cjc056_0394"
    INDEX 01 00:06:00
  TRACK 11 AUDIO
    TITLE "0:"
    INDEX 01 00:07:25
  TRACK 12 AUDIO
    TITLE "9:cjc056_0395"
    INDEX 01 00:07:39
  TRACK 13 AUDIO
    TITLE "0:"
    INDEX 01 00:08:60
  TRACK 14 AUDIO
    TITLE "7:cjc056_0396"
    INDEX 01 00:09:36
  TRACK 15 AUDIO
    TITLE "0:"
    INDEX 01 00:10:37
  TRACK 16 AUDIO
    TITLE "8:cjc056_0397"
    INDEX 01 00:10:51
  TRACK 17 AUDIO
    TITLE "0:"
    INDEX 01 00:11:52
  TRACK 18 AUDIO
    TITLE "9:cjc056_0398"
    INDEX 01 00:11:66
  TRACK 19 AUDIO
    TITLE "0:"
    INDEX 01 00:13:16
  TRACK 20 AUDIO
    TITLE "7:cjc056_0399"
    INDEX 01 00:13:67
  TRACK 21 AUDIO
    TITLE "0:"
    INDEX 01 00:14:72
  TRACK 22 AUDIO
    TITLE "8:cjc056_0400"
    INDEX 01 00:15:11
  TRACK 23 AUDIO
    TITLE "0:"
    INDEX 01 00:16:28
  TRACK 24 AUDIO
    TITLE "9:cjc056_0401"
    INDEX 01 00:16:40
  TRACK 25 AUDIO
    TITLE "0:"
    INDEX 01 00:19:28
  TRACK 26 AUDIO
    TITLE "7:cjc056_0402"
    INDEX 01 00:20:14
  TRACK 27 AUDIO
    TITLE "0:"
    INDEX 01 00:21:13
  TRACK 28 AUDIO
    TITLE "8:cjc056_0403"
    INDEX 01 00:21:27
  TRACK 29 AUDIO
    TITLE "0:"
    INDEX 01 00:22:52
  TRACK 30 AUDIO
    TITLE "9:cjc056_0404"
    INDEX 01 00:22:66
  TRACK 31 AUDIO
    TITLE "0:"
    INDEX 01 00:24:37
  TRACK 32 AUDIO
    TITLE "7:cjc056_0405"
    INDEX 01 00:25:15
  TRACK 33 AUDIO
    TITLE "0:"
    INDEX 01 00:26:15
  TRACK 34 AUDIO
    TITLE "8:cjc056_0406"
    INDEX 01 00:26:26
  TRACK 35 AUDIO
    TITLE "0:"
    INDEX 01 00:27:43
  TRACK 36 AUDIO
    TITLE "9:cjc056_0407"
    INDEX 01 00:27:57
  TRACK 37 AUDIO
    TITLE "0:"
    INDEX 01 00:31:63
  TRACK 38 AUDIO
    TITLE "7:cjc056_0408"
    INDEX 01 00:32:41
  TRACK 39 AUDIO
    TITLE "0:"
    INDEX 01 00:33:48
  TRACK 40 AUDIO
    TITLE "8:cjc056_0409"
    INDEX 01 00:33:64
  TRACK 41 AUDIO
    TITLE "0:"
    INDEX 01 00:35:21
  TRACK 42 AUDIO
    TITLE "9:cjc056_0410"
    INDEX 01 00:35:37
  TRACK 43 AUDIO
    TITLE "0:"
    INDEX 01 00:37:36
  TRACK 44 AUDIO
    TITLE "7:cjc056_0411"
    INDEX 01 00:38:12
  TRACK 45 AUDIO
    TITLE "0:"
    INDEX 01 00:39:09
  TRACK 46 AUDIO
    TITLE "8:cjc056_0412"
    INDEX 01 00:39:23
  TRACK 47 AUDIO
    TITLE "0:"
    INDEX 01 00:40:28
  TRACK 48 AUDIO
    TITLE "9:cjc056_0413"
    INDEX 01 00:40:42
  TRACK 49 AUDIO
    TITLE "0:"
    INDEX 01 00:42:21
  TRACK 50 AUDIO
    TITLE "7:cjc056_0414"
    INDEX 01 00:42:72
  TRACK 51 AUDIO
    TITLE "0:"
    INDEX 01 00:43:74
  TRACK 52 AUDIO
    TITLE "8:cjc056_0415"
    INDEX 01 00:44:14
  TRACK 53 AUDIO
    TITLE "0:"
    INDEX 01 00:45:28
  TRACK 54 AUDIO
    TITLE "9:cjc056_0416"
    INDEX 01 00:45:39
  TRACK 55 AUDIO
    TITLE "0:"
    INDEX 01 00:47:17
  TRACK 56 AUDIO
    TITLE "7:cjc056_0417"
    INDEX 01 00:47:68
  TRACK 57 AUDIO
    TITLE "0:"
    INDEX 01 00:49:06
  TRACK 58 AUDIO
    TITLE "8:cjc056_0418"
    INDEX 01 00:49:20
  TRACK 59 AUDIO
    TITLE "0:"
    INDEX 01 00:50:39
  TRACK 60 AUDIO
    TITLE "9:cjc056_0419"
    INDEX 01 00:50:52
  TRACK 61 AUDIO
    TITLE "0:"
    INDEX 01 00:52:12
  TRACK 62 AUDIO
    TITLE "7:cjc056_0420"
    INDEX 01 00:52:65
  TRACK 63 AUDIO
    TITLE "0:"
    INDEX 01 00:54:03
  TRACK 64 AUDIO
    TITLE "8:cjc056_0421"
    INDEX 01 00:54:17
  TRACK 65 AUDIO
    TITLE "0:"
    INDEX 01 00:55:42
  TRACK 66 AUDIO
    TITLE "9:cjc056_0422"
    INDEX 01 00:55:55
  TRACK 67 AUDIO
    TITLE "0:"
    INDEX 01 00:57:23
